<?xml version="1.0" encoding="utf-8"?>
<!-- Generator: Adobe Illustrator 22.0.1, SVG Export Plug-In . SVG Version: 6.00 Build 0)  -->
<svg version="1.1" id="Layer_1" xmlns="http://www.w3.org/2000/svg" xmlns:xlink="http://www.w3.org/1999/xlink" x="0px" y="0px"
	 viewBox="0 0 100.6 92.6" style="enable-background:new 0 0 100.6 92.6;" xml:space="preserve">
<style type="text/css">
	.st0{fill:none;stroke:#ccc;stroke-width:6;stroke-linecap:round;stroke-linejoin:round;stroke-miterlimit:10;}
</style>
<g>
	<path class="st0" d="M95,19.6c-1.4-3-3.3-5.8-5.8-8.3c0,0,0,0,0,0C84.4,6.4,78.1,3.6,71.7,3C64.2,2.4,56.4,9.6,50.3,15
		C39,5.1,22,0.7,11.4,11.3c-11.1,11.1-11.1,29.1,0,40.3"/>
	<path class="st0" d="M28.1,68.3L48.9,89c0.8,0.8,2,0.8,2.8,0l29.4-29.3l8.1-8.1c8.7-8.6,10.6-21.5,5.8-32"/>
</g>
</svg>
