<?xml version="1.0" encoding="UTF-8"?>
<!DOCTYPE svg PUBLIC "-//W3C//DTD SVG 1.1//EN" "http://www.w3.org/Graphics/SVG/1.1/DTD/svg11.dtd">
<!-- Creator: CorelDRAW 2017 -->
<svg xmlns="http://www.w3.org/2000/svg" xml:space="preserve" width="100mm" height="150mm" version="1.1" style="shape-rendering:geometricPrecision; text-rendering:geometricPrecision; image-rendering:optimizeQuality; fill-rule:evenodd; clip-rule:evenodd"
viewBox="0 0 21000 29700"
 xmlns:xlink="http://www.w3.org/1999/xlink">
 <defs>
  <style type="text/css">
   <![CDATA[
    .fil1 {fill:#fff}
    .fil0 {fill:#fff;fill-rule:nonzero}
   ]]>
  </style>
 </defs>
 <g id="Слой_x0020_1">
  <metadata id="CorelCorpID_0Corel-Layer"/>
  <g id="_1670587472064">
   <path class="fil0" d="M7407.15 17216.86l-438.85 0 0 -715.61 -458.17 0 119.85 123.56 0 1184.1 338.32 0 0 -293.45 -34.79 -36.04 473.64 0 0 329.49 338.31 0 0 -1307.66 -338.31 0 0 715.61zm587.7 -592.05l0 1184.1 974.36 0 0 -265.14 -636.04 0 0 -234.24 463.97 0 0 -262.56 -463.97 0 0 -241.98 -38.66 -41.17 674.7 0 0 -262.57 -1094.21 0 119.85 123.56zm1997.03 -123.56l-686.3 0c-29.64,0 -57.35,7.3 -83.14,21.88 -25.76,14.59 -48.32,34.75 -67.65,60.49 -19.33,25.74 -34.8,55.78 -46.39,90.1 -11.61,34.32 -17.4,71.22 -17.4,110.69l0 738.77c0,39.47 5.79,76.37 17.4,110.69 11.59,34.31 27.06,64.34 46.39,90.09 19.33,25.74 41.89,46.33 67.65,61.78 25.79,15.44 53.5,23.17 83.14,23.17l686.3 0c29.64,0 57.37,-7.73 83.13,-23.17 25.77,-15.45 48.33,-36.04 67.66,-61.78 19.33,-25.75 34.81,-55.78 46.4,-90.09 11.61,-34.32 17.41,-71.22 17.41,-110.69l0 -211.07 -338.34 0 0 154.44c0,22.31 -5.78,40.75 -17.39,55.33 -11.59,14.59 -25.76,21.89 -42.52,21.89l-318.98 0c-16.76,0 -30.94,-7.3 -42.55,-21.89 -11.59,-14.58 -17.4,-33.02 -17.4,-55.33l0 -638.39 3.87 -20.59 -42.53 -43.75 417.59 0c16.76,0 30.93,7.29 42.52,21.87 11.61,14.59 17.39,33.03 17.39,55.34l0 154.46 338.34 0 0 -211.08c0,-39.47 -5.8,-76.37 -17.41,-110.69 -11.59,-34.32 -27.07,-64.36 -46.4,-90.1 -19.33,-25.74 -41.89,-45.9 -67.66,-60.49 -25.76,-14.58 -53.49,-21.88 -83.13,-21.88zm315.12 262.57l388.57 0 0 1045.09 338.32 0 0 -955.01 -86.99 -90.08 477.52 0 0 -262.57 -1117.42 0 0 262.57zm2147.82 -262.57l-686.29 0c-29.65,0 -57.37,7.3 -83.15,21.88 -25.75,14.59 -48.31,34.75 -67.64,60.49 -19.33,25.74 -34.81,55.78 -46.4,90.1 -11.61,34.32 -17.41,71.22 -17.41,110.69l0 738.77c0,39.47 5.8,76.37 17.41,110.69 11.59,34.31 27.07,64.34 46.4,90.09 19.33,25.74 41.89,46.33 67.64,61.78 25.78,15.44 53.5,23.17 83.15,23.17l686.29 0c29.65,0 57.35,-7.73 83.13,-23.17 25.77,-15.45 48.33,-36.04 67.66,-61.78 19.33,-25.75 34.79,-55.78 46.4,-90.09 11.61,-34.32 17.4,-71.22 17.4,-110.69l0 -738.77c0,-39.47 -5.79,-76.37 -17.4,-110.69 -11.61,-34.32 -27.07,-64.36 -46.4,-90.1 -19.33,-25.74 -41.89,-45.9 -67.66,-60.49 -25.78,-14.58 -53.48,-21.88 -83.13,-21.88zm-558.71 306.32l-42.52 -43.75 417.57 0c16.76,0 30.94,7.29 42.53,21.87 11.59,14.59 17.4,33.03 17.4,55.34l0 625.52c0,22.31 -5.81,40.75 -17.4,55.33 -11.59,14.59 -25.77,21.89 -42.53,21.89l-318.99 0c-16.75,0 -30.92,-7.3 -42.53,-21.89 -11.59,-14.58 -17.39,-33.02 -17.39,-55.33l0 -638.39 3.86 -20.59zm2020.24 386.12l0 -409.28c0,-39.47 -5.81,-76.37 -17.4,-110.69 -11.61,-34.32 -27.07,-64.36 -46.4,-90.1 -19.33,-25.74 -41.89,-45.9 -67.66,-60.49 -25.78,-14.58 -53.48,-21.88 -83.13,-21.88l-1020.75 0 119.86 123.56 0 1184.1 338.32 0 0 -329.49 344.1 0c27.07,0 45.76,17.16 56.08,51.48l83.14 278.01 365.37 0 -127.59 -422.17c18.04,-27.45 31.89,-57.47 41.56,-90.08 9.68,-32.61 14.5,-66.93 14.5,-102.97zm-777.16 -388.7l-38.67 -41.17 417.58 0c16.76,0 30.94,7.29 42.53,21.87 11.61,14.59 17.41,33.03 17.41,55.34l0 296.03c0,22.31 -5.8,41.18 -17.41,56.63 -11.59,15.45 -25.77,23.17 -42.53,23.17l-378.91 0 0 -411.87z"/>
   <path class="fil1" d="M13020.55 14214.37c-238.66,12.17 -481.06,19.4 -718.86,33.91 -15.64,0.92 -36.15,5.3 -47.86,3 -8.54,-1.7 -17.61,-18.43 -24.01,-26.89 -22.29,-30.05 -44.63,-61.88 -73.8,-81.77 -23.71,-16.06 -47.98,-20.14 -81.9,-16.91 -30.33,2.82 -65.71,-0.15 -88.85,14.91 -15.95,-6.12 -33.79,-1.86 -50.95,0 -18.59,2.08 -37.02,-0.85 -54.86,2 -30.84,4.97 -48.6,27.16 -66.89,41.85 -17.24,-5.49 -35.93,1.04 -47.93,6.97 -14.65,-11.31 -39.81,2.23 -51.96,1 -5.57,-0.52 -19.02,-10.64 -26.9,-15.95 -10,-6.67 -18.88,-12.95 -25.94,-17.88 -52.96,-37.06 -102.86,-72.67 -152.81,-109.66 -33.52,-24.86 -60.2,-56.95 -95.8,-78.72 -38.88,-23.86 -85.55,-22.15 -137.8,-36.88 3.98,-273.49 -128.51,-435.35 -241.55,-596.98 -96.77,-138.38 -199.71,-265.48 -344.49,-355.81 -29.06,-18.18 -57.71,-38.18 -87.77,-52.83 -63.33,-30.83 -130.66,-55.39 -204.69,-75.72 -18.17,-5 -34.86,-12.57 -52.92,-16.99 -57.86,-14.13 -119.88,-18.55 -185.73,-24.89 0,-0.33 0,-0.67 0,-1 -56.93,0 -113.79,0 -170.65,0 -340.47,37.17 -628.99,137.89 -813.69,332.88 -46.38,48.97 -91.9,99.13 -123.82,162.45 -31.88,63.4 -55.85,134.11 -72.84,214.28 -7.98,37.58 -15.97,81.65 -15.97,126.54 0,153.66 35.74,271.04 123.74,334.89 32.78,0.71 55.34,-17.4 79.9,-28.9 67.64,-31.65 124.86,-73.9 199.63,-94.67 19.14,17.21 34.57,39.02 53.96,56.83 15.02,13.73 31.89,24.78 45.94,37.84 4.08,3.82 10.47,8.9 10.95,14.95 -21.21,34.65 -57.33,63.55 -66.89,107.62 -6.39,29.79 -12.67,58.21 -18.98,85.74 -17.32,76.12 -41.37,147.42 -50.88,228.23 -0.67,0 -1.37,0 -2.04,0 -124.64,9.57 -258.87,9.2 -385.33,19.92 -19.88,1.7 -37.35,1.74 -50.88,-4.98 -13,-6.3 -23.56,-15.91 -35.97,-21.92 -91.38,-44.15 -237.31,-41.25 -358.42,-23.93 -267.38,38.29 -485.48,132.22 -675.86,251.15 61.39,48.53 149.31,59.44 234.6,78.73 85.81,19.44 175.66,35.87 266.6,46.86 91.3,11.01 200.41,17.65 296.51,8.93 82.65,-7.49 160.32,-25.55 205.66,-67.74 6.23,-5.86 12.55,-15.72 20.95,-18.91 14.5,-5.65 36.86,-2.6 57.9,-3.01 136.16,-2.67 277.45,-14.28 405.29,-20.92 -5.36,63.77 -20.15,119.49 -29.96,178.36 -5.57,33.73 -5.5,60.1 5.99,88.74 29.05,72.19 38.83,184.75 19.95,273.08 -12.26,57.88 -24.38,116.53 -31.88,177.37 -23.27,-7.13 -45.27,-18.66 -68.9,-26.9 -167,-57.98 -402.09,-73.86 -613.98,-49.82 -234.72,26.56 -421.64,105.32 -571.03,214.24 -153.55,112.04 -274.25,245.33 -368.42,416.61 -90.52,164.68 -161.69,367.46 -184.73,600.99 0,13.62 0,27.23 0,40.85 1.52,3.45 3.67,6.34 5.98,8.98 1.71,0 3.42,0 5.06,0 15.9,-15.51 15.19,-38.33 18.98,-57.8 4.09,-21.44 9.18,-43.11 12.94,-63.77 54.59,-298.39 173.88,-548.09 339.47,-736.52 191.9,-218.43 467.61,-356.17 861.55,-369.79 208.15,-7.16 375.56,31.76 518.11,96.68 283.02,129.03 457.16,366.79 581.06,649.85 55.45,126.65 92.83,261.1 132.78,404.59 5.46,19.74 9.18,44.26 18.99,58.84 12.45,18.47 35.71,5.08 42.88,-8.98 10.74,-21.07 9.92,-57.46 5.99,-90.7 -10.74,-90.97 -34.97,-171.58 -57.87,-247.19 -94.39,-311.4 -253.43,-564.49 -487.22,-730.5 35.93,-20.11 81.05,-40.33 120.81,-58.8 14.2,-6.61 28.24,-16.44 42.92,-17.96 17.88,-1.89 35.71,22.3 44.93,33.87 79.16,99.98 123.15,242.1 151.77,385.71 76.92,14.81 159.57,-0.15 213.64,-27.9 11.41,-5.86 45,-24.63 47.9,-36.87 2.31,-9.57 -1.56,-28.45 -2.97,-40.85 -10.63,-94.22 -44.48,-164.49 -85.88,-224.26 -40.32,-58.2 -92.24,-117.78 -150.76,-159.44 -8.18,-5.87 -26.35,-11.02 -27.91,-16.95 -1.75,-6.49 10.1,-13.29 16.94,-16.96 9.18,-4.93 17.39,-8.23 24.94,-11.98 53.1,-26.19 102.08,-47.6 142.77,-78.72 57.08,-43.55 108.44,-89.04 152.81,-142.5 -7.32,-33.91 17.02,-44.74 19.92,-71.78 45.19,-4.68 83.61,5.45 118.77,13.98 2.15,102.54 42.99,166.39 140.84,173.4 -81.5,30.94 -187.89,37.06 -289.56,47.82 29.73,18.55 67.56,21.74 105.83,26.93 112.97,15.29 239.99,6.53 321.45,-29.9 7.28,-3.3 18.32,-10.79 22.97,-10.98 9.66,-0.33 18.24,11.65 27.94,15.95 11.3,5.01 22.26,5.68 32,9.95 34.67,59.76 39.28,144.19 37.87,233.23 -1.27,86.07 -15.87,172.77 -22.9,247.19 37.91,14.31 89.64,9.08 132.75,3.97 43.92,-5.2 87.77,-13.17 123.82,-22.93 40.43,-145.58 48.53,-387.27 -11,-514.25 78.85,-18.15 187.44,-11.02 249.57,16.95 22.82,56.35 55.97,98.09 121.82,105.66 8.88,1 20.44,-1.41 31.89,0.96 8.32,1.71 16.79,12.39 24.97,19.96 23.37,21.48 44.25,44.33 63.91,65.77 28.03,30.57 53.6,65.66 88.9,84.7 20.92,11.31 42.51,11.35 72.83,9.97 91.02,-4.11 149.47,27.68 220.67,43.82 79.42,124.06 220.96,186.05 402.31,208.31 -6.17,-22.45 -36.49,-25.34 -53.92,-36.84 -6.25,-4.16 -10.52,-10.65 -16.98,-13.95 -17.17,-8.83 -37.17,-13.66 -54.85,-20.93 -88.79,-36.5 -174.74,-84.32 -199.71,-184.41 -5.43,-21.74 -2.82,-44.22 -0.97,-69.75 8.84,-123.35 -2.67,-253.48 -19.02,-359.77 -6.1,-39.62 -14.57,-89.19 -24.9,-128.59 -8.55,-32.34 -29.43,-44.62 -51.95,-62.76 -4.69,-3.75 -19.81,-15.85 -19.96,-18.93 -0.26,-4.22 14.83,-18.47 19.96,-23.96 22.52,-24.19 46.37,-45.89 61.91,-72.75 11.89,-20.55 14.94,-43.4 23.93,-65.77 9.44,-23.45 8.25,-49.16 17.02,-72.75 50.39,3.11 78.19,28.82 102.79,57.79 4.61,-32.97 17.61,-57.46 35.89,-76.71 15.39,6.34 24.75,15.91 40.96,17.91 17.76,2.23 28.5,-11.64 45.93,-13.94 21.63,-2.86 32.55,11.38 55.89,8.97 3.09,-90.56 2.86,-159.59 -45.89,-210.31 -20.66,-21.48 -50.28,-34.12 -85.88,-43.81 -31.96,-8.79 -73.66,-20.44 -77.82,-52.86 -7.02,-53.91 88.45,-45.26 126.79,-37.84 33.75,6.53 63.25,16.8 87.82,28.89 28.95,14.29 46.04,30.21 60.87,55.8 20.55,35.39 34.15,83.21 45.97,128.58 4.16,16.14 10.07,31.83 10.96,47.82 6.95,117.64 -40.02,198.4 -83.87,266.11 87.25,185.12 172.28,378.25 233.67,593.01 45.41,159 83.46,327.91 92.83,526.24 3.01,64.73 3.12,135.08 -11,194.32 -0.22,0.78 0,1.97 -0.96,1.97 -194.47,65.18 -407.89,127.58 -668.92,127.58 -261.32,0 -482.58,-49.71 -640.96,-155.44 -9.59,-66.48 0.37,-138.16 10,-196.36 3.3,-19.81 10.14,-41.37 -1.97,-58.81 -31.67,5.9 -31.74,43.37 -39.95,67.75 -8.96,26.52 -17.66,55.46 -25.98,81.76 -8.32,26.45 -19.99,53.57 -24.97,82.69 -5.2,30.8 -9.51,62.62 -13.97,94.71 -16.95,121.61 -32.48,278.76 0,394.65 26.16,-48.74 34.29,-115.26 43.96,-181.37 4.72,-32.64 9.48,-66.07 14.98,-97.68 5.46,-31.42 8.69,-63.66 25.94,-86.7 45.52,24.08 91.41,47.82 141.73,66.74 154.29,58.06 329.47,82.92 546.13,81.77 67.41,-0.38 131.33,-8.09 192.72,-15.95 155.33,-19.93 292.68,-56.02 428.21,-94.68 13.75,-3.93 28.06,-7.53 38.98,-12.98 35.27,-17.7 31.89,-73.83 37.91,-118.57 4.27,-31.64 7.47,-64.74 7.99,-96.71 3.38,-209.24 -36.53,-383.93 -78.9,-546.13 -58.01,-222.21 -135.93,-421.95 -224.6,-610.97 18.73,-42.1 43.29,-91.7 46.93,-150.47 0.97,-15.84 0,-31.2 1.97,-46.85 5.28,-41.59 16.05,-88.52 7.99,-134.52 225.46,-10.46 448.95,-22.93 673.89,-33.91 5.84,-43.33 6.73,-91.63 10,-137.52 0,-15.62 0,-31.24 0,-46.86 -2.31,-14.61 -2.9,-31.01 -4.98,-45.85zm-1797.06 -435.53l0 0c4.31,20.33 14.27,45.26 10.03,65.81 -2.75,13.39 -22.33,27.45 -34.97,35.87 -98.51,65.59 -235.27,96.05 -359.39,133.52 -18.36,-46.37 -34.45,-95.12 -58.9,-135.48 139.69,-75.83 269.76,-166.61 382.36,-266.15 26.01,47.97 47.34,102.47 60.87,166.43zm-188.63 -371.73l0 0c36.01,47.78 68.97,98.61 99.81,151.51 -39.28,71.16 -100.52,122.2 -162.69,170.4 -62.33,48.3 -126.95,96.52 -195.7,137.56 -25.05,-48.75 -50.98,-96.61 -83.91,-137.56 129.7,-91.82 242.56,-200.41 342.49,-321.91zm-272.59 470.41l0 0c-2.52,0.78 -5.65,1.04 -6.95,3 -26.75,-48.41 -54.29,-95.97 -85.84,-139.56 3.49,-0.11 4.46,-2.82 7.95,-2.97 17.1,20.66 31.52,43.78 45.93,66.78 14.31,22.78 28.21,46.96 38.91,72.75zm233.64 -525.24l0 0c-64.4,160.64 -193.32,256.83 -308.52,366.79 -48.49,-63.51 -102.27,-121.75 -167.67,-168.46 133.07,-103.99 237.05,-237.02 324.42,-386.67 59.09,53.64 109.03,121.72 151.77,188.34zm-994.37 -480.38l0 0c76.44,-6.68 167.56,-5.49 239.61,4 -49.31,145.69 -92.67,327.51 -72.87,528.25 6.73,-2.19 4.5,-11.69 4.95,-15.96 21.62,-189.46 49.5,-382.22 142.81,-502.31 79.04,15.48 151.54,37.4 217.65,65.78 -23.3,200.55 -113.64,335.77 -206.69,470.4 -0.45,0.71 -8.62,9.39 -6.95,11.95 3.46,5.31 20.77,-13.1 24.97,-16.92 55.45,-51.15 100.12,-115.22 139.77,-181.41 46.89,-78.27 86.81,-157 113.79,-252.12 66.14,31.65 119.36,66.41 172.69,112.6 6.05,5.27 19.13,14.5 19.99,19.96 0.93,5.9 -6.8,24.22 -10,34.87 -48.42,159.78 -149.01,258.39 -245.6,371.76 -5.01,5.86 -18.1,23.63 -19.95,23.89 -2.86,0.41 -19.22,-13.5 -25.94,-17.92 -61.17,-40.32 -129.1,-74.12 -207.66,-94.71 -95.36,-24.97 -200.12,-33.02 -314.46,-23.93 1.71,-43.77 -4.53,-90.44 -8.03,-138.52 -10.26,-141.94 -3.9,-298.61 41.92,-399.66zm-74.84 8.01l0 0c-19.29,177.37 -6.99,386.38 37.94,530.17 -50.06,5.9 -98.37,13.5 -139.77,27.94 -68.23,-148.92 -144.11,-290 -148.79,-502.31 79.97,-22.19 159.64,-44.63 250.62,-55.8zm-299.52 74.72l0 0c0.66,0 1.33,0 2,0 17.51,205.45 99.3,346.72 183.69,485.39 -43.11,12.76 -84.47,27.27 -122.82,44.85 -28.73,-37.62 -66.37,-70.34 -98.78,-105.69 -80.78,-88.15 -150.46,-185.01 -190.71,-315.89 66.04,-45.71 143.08,-80.43 226.62,-108.66zm-285.48 146.53l0 0c87.55,155.04 200.97,284.33 341.36,386.68 -44.55,17.92 -84.24,40.77 -122.78,64.77 -151.8,-70.37 -300.78,-143.53 -403.28,-263.1 50.84,-73.42 114.24,-134.44 184.7,-188.35zm-218.66 243.18l0 0c126.94,86.85 256.27,171.36 429.25,212.28 1.01,2.78 -2.63,3.04 -3.94,3.97 -23.08,16.4 -46.41,33.35 -68.93,53.83 -9.15,8.35 -15.13,17.84 -23.93,20.92 -13.05,4.53 -34.86,4.12 -52.92,4.97 -129.77,6.05 -268.83,-3.37 -357.42,-40.84 -3.42,-113.71 42.59,-183.42 77.89,-255.13zm246.53 427.52l0 0c-101.01,24.08 -165.45,84.62 -257.53,117.6 -34.34,-63.36 -47.12,-148.28 -60.91,-232.19 122.04,18.55 285.36,21.11 396.37,-8.95 -5.84,13.66 -17.43,20.11 -24.94,34.88 -7.36,14.28 -7.39,32.27 -16.02,45.82 -10.59,16.65 -31.88,23.74 -36.97,42.84zm88.93 72.79l0 0c16.38,-0.78 34.52,5.31 53.84,9.94 24.75,6.01 53.4,22.3 65.93,-1 -49.43,-16.44 -94.13,-37.5 -151.77,-45.82 -14.12,-13.46 -27.8,-27.34 -37.91,-44.81 69.05,-87.37 155.27,-163.86 258.5,-223.33 101.45,-58.32 223.42,-105.21 374.44,-107.62 159.65,-2.53 290.01,25.89 398.37,81.72 97.66,50.38 179.27,121.31 245.56,206.34 3.35,4.31 12.19,10.72 1.98,15.95 -3.39,1.12 -4.57,-3.26 -5.98,-5 -33.12,-40.03 -66.82,-79.54 -106.81,-114.6 -121.89,-106.88 -295.81,-187.05 -530.11,-176.4 -149.76,6.79 -262.84,46.48 -367.38,105.62 -87.07,49.23 -163.02,109.55 -228.58,184.37 -8.51,9.65 -26.01,23.04 -26.01,32.95 -0.07,12.06 13.08,18.14 19.99,25.86 85.1,-103.36 185.29,-187.87 312.46,-250.16 13.37,-6.56 26.82,-9.05 31.96,-22.92 18.47,4.75 32.47,-5.86 49.9,-12.95 10.89,-4.41 22.41,-9.39 33.93,-12.95 34.15,-10.57 69.87,-9.2 93.87,-25.89 10.44,7.94 36.79,2.3 55.89,0.96 36.94,-2.59 78.86,-5.67 114.83,0 11.45,1.82 24.01,8.42 30.96,-0.96 2.04,3.89 4.79,6.38 7.95,7.94 18.62,9.2 51.17,9.76 76.89,15.95 12.6,3.04 24.9,6.82 35.97,9.98 12.78,3.67 24.82,9.09 34.86,10.94 3.04,0.56 6.2,1.23 10.03,-1 3.34,4.64 9.07,6.9 12.97,10.98 49.91,15.25 92.05,38.29 130.77,64.78 4.83,0.85 7.1,-0.93 10.03,-2.01 0.23,5.71 2.23,8.2 4.98,10.98 9,9.13 23.94,15.88 34.94,23.93 33.37,24.52 64.28,51.68 92.83,82.69 38.28,41.66 67.11,84.7 103.82,129.59 2.83,19.92 13.83,31.35 22.98,48.82 12.18,23.33 25.04,47.71 35.93,73.75 5.53,13.39 8.14,29.31 14.97,39.88 1.71,2.71 1.12,5.75 7.99,4.97 -3.79,16.92 5.54,32.8 11,50.83 7.47,24.93 13.71,46.74 18.92,76.71 2.23,12.84 4.98,32.5 14.05,33.91 4.01,0.63 12.41,-5.11 13.93,-8.94 2.72,-6.82 -1.89,-26.86 -4.01,-37.91 -15.8,-83.55 -51.1,-161.19 -79.86,-224.22 2.9,-0.75 5.72,-1.56 6.98,-4.01 36.79,81.54 80.42,161.6 83.84,273.08 -6.61,10.31 -24.79,9.09 -34.93,15.95 -8.92,-55.2 -22.15,-106.14 -37.91,-154.48 -36.71,58.92 -67.71,123.95 -101.82,186.42 -4.61,8.39 -6.84,19.7 -16.02,24.9 -5.01,-21.19 14.09,-36.44 22.97,-52.83 27.8,-51.12 50.73,-107.14 80.86,-156.48 -45.45,8.38 -76.77,30.98 -117.76,43.85 11.26,-68.49 28.91,-139.23 40.91,-210.31 -37.57,14.69 -73.84,44.59 -107.8,62.8 1.63,-67.47 11.29,-126.91 16.94,-190.34 -42.1,18.43 -79.3,50.37 -117.76,75.71 -9.55,-61.17 -10.74,-130.77 -18.03,-194.32 -40.2,26.23 -72.05,69.56 -112.82,98.68 -11,-58.09 -24.75,-113.48 -34.86,-172.43 -34.78,27.94 -66.44,69.19 -95.91,106.66 -3.98,5.04 -6.87,11.53 -12.97,13.91 -22.29,-50.83 -36.9,-109.33 -55.85,-163.42 -22.86,14.84 -36.23,39.18 -51.95,60.77 -15.58,21.44 -33.19,42.18 -45.9,65.81 -34.78,-40.36 -64.77,-85.55 -95.88,-129.58 -22.66,48.48 -35.86,106.4 -52.87,160.48 -4.8,0.75 -9.7,-6.41 -15.05,-10.98 -35.72,-30.64 -71.06,-68.33 -108.81,-97.68 -10.82,51.98 -11.23,114.34 -18.96,169.43 -53.07,-20.44 -102.79,-44.18 -153.74,-66.77 -17.05,62.02 -18.91,139.26 -25.9,211.27 24.23,-3.34 33.71,-21.41 51.88,-30.91 5.05,-35.76 3.16,-78.53 6.99,-115.59 34.7,12.72 72.17,21.37 109.81,34.87 16.24,5.86 35.41,20.22 47.94,4.01 20.43,-26.38 1.52,-95.98 16.98,-128.55 2.42,-2.22 4.16,2.12 4.98,2.97 12.56,13.17 32.03,24.56 47.94,35.91 18.43,13.21 37.01,27.9 54.85,39.84 18.36,-41.47 32.55,-87.1 46.97,-132.55 30.25,36.54 54.56,79.06 81.83,118.61 27.5,-36.32 53.89,-73.76 78.86,-112.64 22.07,40.44 35.71,89.3 51.95,135.56 42.74,-26.78 69.64,-69.37 112.78,-95.71 10.59,53.94 25.98,102.98 33.97,159.48 41.73,-20.14 68.71,-63.62 109.81,-87.7 0,60.14 7.96,112.34 8.03,172.4 41.25,-13.91 75.92,-34.39 112.78,-52.79 -4.27,49.89 -11.11,105.84 -16.01,158.44 41.99,-9.94 74.84,-28.93 112.86,-42.85 -13.34,60.81 -34.15,122.69 -46.94,187.39 27.17,-2.41 45.86,-13.36 70.91,-17.96 -13.83,46.71 -56.3,97.09 -32.97,160.45 -11.7,5.61 -26.49,8.09 -39.94,11.95 -37.98,-106.44 -85.4,-203.08 -147.76,-286.03 -63.1,-83.88 -134.86,-153.21 -239.61,-193.32 -52.85,-20.25 -118.07,-34.39 -184.66,-31.9 -172.39,6.45 -294.95,66.81 -411.34,130.55 -23.34,12.8 -45.86,27.97 -71.84,35.91 1.75,-14.65 18.14,-20.41 28.95,-25.93 35.42,-18.18 70.13,-38.4 106.77,-56.8 96.25,-48.3 207.02,-85.51 343.45,-91.71 66.7,-3 133.74,10.17 187.66,29.9 210.97,77.24 311.12,271.45 394.36,475.42 6.35,0 12.67,0 18.99,0 -0.67,-39.59 -8.29,-72.01 -20,-101.69 -3.56,-9.09 -9.43,-17.62 -12.97,-26.9 -5.31,-14.13 -6.94,-28.3 -12,-40.88 -14.41,-36.32 -34.41,-69.22 -56.86,-100.65 -57.22,-79.98 -132.07,-148.69 -223.63,-197.32 -46.12,-24.49 -95.54,-47.63 -149.76,-60.77 -126.43,-30.68 -255.6,1.97 -354.41,40.81 -77.49,30.53 -145.94,63.66 -210.64,105.69 -20.69,13.39 -39.87,30.05 -62.91,39.85 1.6,-17.96 23.38,-15.88 27.95,-30.9 -15.83,-2.42 -32.41,-8.02 -48.91,-11.95 -16.27,-3.93 -34.63,-3.08 -45.89,-13.95zm1404.59 621.88l0 0c-74.69,4.78 -149.87,9.16 -228.58,9.97 0.26,-36.16 0.04,-71.82 -1.97,-105.65 78.11,-3.08 153.37,-9.01 233.52,-9.94 -3.04,32.91 -5.57,70.15 -2.97,105.62zm-180.68 -142.5l0 0c49.28,-25.3 101.9,-52.45 154.74,-70.78 11.26,20.89 37.02,31.98 33.97,63.81 -66.07,-0.86 -123.93,6.49 -188.71,6.97zm-1149.11 -378.7l0 0c18.62,-16.24 43.03,-28.15 66.9,-40.88 115.94,-61.76 245.71,-113.67 416.32,-121.6 264.25,-12.29 406.43,134.81 494.2,299.97 62.81,118.27 118.63,307.73 75.89,487.4 -9.14,38.25 -22.41,73.75 -41.99,106.58 -7.17,12.21 -16.87,41.14 -37.9,23.93 -1.94,-11.21 3.23,-17.37 4.97,-26.9 28.92,-153.1 29.88,-351.21 -16.98,-480.38 -47.38,-130.81 -146.6,-220.07 -301.45,-233.2 0.55,7.08 13.3,8.09 20.99,10.94 120.52,45.37 211.9,121.91 255.53,246.18 46.45,132.45 32.99,331.89 2,474.42 -170.79,-43.08 -312.56,-127.65 -440.25,-220.25 -30.32,-21.97 -62.88,-45.56 -94.84,-69.78 -10.66,-8.06 -24.19,-16.52 -29.99,-24.94 -4.31,-6.23 -3.83,-15.06 -8.99,-19.92 -13.27,-12.39 -49.43,-14.1 -69.83,-22.92 -61.94,-26.64 -119.33,-68.01 -169.71,-106.63 -35.12,-26.89 -69.09,-54.42 -101.86,-82.72 -33.34,-28.75 -66.89,-58.43 -111.82,-72.75 28.31,-46.12 50.09,-92.71 88.81,-126.55zm953.46 1041.43l0 0c-16.8,-69.82 -19.51,-180.23 14.01,-233.2 2.08,0.44 2.6,-0.67 4.01,-0.97 0.63,0 1.26,0 1.94,0 -18.52,65.11 -28.51,151.55 -19.96,234.17zm-1080.22 -584.01l0 0c-9.43,-20.81 -18.02,-42.44 -19.95,-70.78 10.4,19.81 17.39,43.15 19.95,70.78zm-86.84 134.56l0 0c-133.97,7.98 -277.75,15.47 -419.3,19.92 -9.44,0.3 -20.73,-0.78 -27.91,1 -14.42,3.53 -21.32,22.07 -33.96,30.91 -22.71,15.76 -55.67,25.49 -87.93,32.87 -96.24,21.96 -228.58,18.29 -336.38,8.97 -148.09,-12.76 -280.61,-41.55 -414.35,-67.74 181.86,-89.81 373.02,-161.56 628.99,-173.43 87.71,-4.08 183.58,5.15 237.61,40.84 8.48,5.61 15.39,17.4 24.98,20.93 27.42,10.16 72.39,-1.53 102.79,-3.97 110.96,-8.95 212.94,-9.09 327.46,-10.99 7.62,31.43 -4.68,64.7 -2,100.69zm551.07 833.19l0 0c13.52,13.28 25.67,28.56 36.93,40.84 51.59,56.28 91.83,109.03 123.83,187.38 7.1,17.37 13.53,34.62 18.91,58.8 4.69,20.63 13.42,51.42 7.07,66.75 -6.54,15.61 -32.71,24.15 -49.95,29.93 -37.46,12.47 -82.94,17.85 -131.78,11.95 -33.22,-158.19 -88.07,-300.13 -182.72,-393.69 30.22,-14.35 69.6,-30.34 112.79,-33.87 28.98,-2.37 48.08,15.36 64.92,31.91zm485.21 -395.69l0 0c-8.76,-67.93 10.56,-152.81 -16.94,-207.3 -6.99,-13.73 -19.03,-26.42 -35.97,-28.91 -31,-4.48 -66.22,6.35 -83.87,15.96 -43.3,23.63 -59.13,88.03 -66.86,149.47 -3.12,24.56 2.12,62.32 -7.02,81.76 -11.93,25.27 -54.07,52.61 -75.85,70.75 -27.95,23.26 -54.77,46.07 -81.83,64.81 -58.56,40.36 -125.01,71.86 -190.71,102.61 -133.6,62.51 -267.05,127.21 -403.35,183.41 -9.15,-2.89 -16.8,-7.16 -23.01,-12.98 135.27,-64.52 274.66,-122.38 410.38,-189.35 100.3,-49.52 203.49,-94.08 290.53,-159.45 19.77,-14.87 44.15,-30.71 57.86,-54.83 4.87,-8.57 10.29,-22.18 5.98,-24.89 -10.56,-6.71 -18.99,11.54 -22.93,14.91 -23.97,20.56 -54.81,38.73 -83.87,56.84 -86.33,53.75 -182.47,101.79 -276.52,145.46 -129.51,60.17 -253.74,125.09 -392.39,169.46 29.43,-207.19 74.4,-398.84 107.84,-601.95 55.3,14.13 121.74,19.99 187.71,9.94 45.22,-6.86 85.36,-17.58 124.82,-32.9 8.51,-3.3 33.34,-8.87 32.89,-18.93 -0.33,-8.45 -11.97,-9.34 -18.95,-7.97 -10.78,2.15 -9.48,5.34 -20,8.98 -20.32,7.12 -44.26,10.27 -66.85,13.95 -40.47,6.6 -97.14,13.43 -148.79,10.97 -44.93,-2.14 -80.64,-5.56 -99.78,-30.9 -28.39,172.77 -65.41,333.74 -101.86,499.31 -12.15,55.13 -20.96,110.84 -31.96,167.46 -13.01,-9.46 -3.31,-27.27 -1,-38.88 20.25,-99.02 36.82,-203.7 55.92,-301.98 11.04,-56.91 22.52,-114.89 33.93,-171.43 11.41,-56.5 18.54,-113.71 43,-161.45 54.25,18.18 111.86,34.98 182.61,27.9 63.03,-6.27 122.85,-23.78 173.73,-39.89 -18.84,-27.7 -52.44,-45.25 -78.89,-69.74 -25.2,-23.37 -50.84,-48.45 -78.82,-70.75 -44.49,-35.42 -134.86,-103.94 -211.71,-52.82 -27.95,18.66 -30.44,49.6 -39.92,90.67 -16.2,70.22 -41.84,143.38 -44.89,223.25 -9.51,4.79 -19.1,9.5 -29.95,12.99 2.45,-38.21 12.34,-75.87 18.95,-114.64 19.1,-111.7 17.77,-250 156.75,-244.18 -32.48,-30.12 -99.74,4.38 -120.77,25.94 -5.28,-19.33 -6.17,-43.04 -20,-53.83 7.69,-7.98 15.09,-21.52 22.97,-25.9 3.86,12.73 2.9,30.31 2.97,46.82 45.04,-10.35 85.03,-54.76 134.75,-62.77 36.12,-5.82 58.19,26.74 79.93,45.81 88.04,77.61 181.47,158.45 298.52,204.31 23.97,9.46 50.43,15.32 76.85,23.96 24.82,8.12 50.92,20.52 79.9,17.96 1.45,-19.52 -15.83,-20.04 -30.99,-24.97 -21.63,-6.97 -43.92,-18.33 -65.85,-27.9 -141.48,-61.69 -269.42,-136.85 -366.41,-243.14 -6.8,-7.46 -17.92,-22.15 -22.97,-23.93 -12.64,-4.45 -39.8,-0.45 -51.95,1.97 -42.74,8.57 -67.93,31.9 -103.8,49.82 -4.79,2.41 -4.23,4.9 -7.02,1 -4.72,-6.61 2.49,-9.01 10,-13.95 37.35,-24.7 71.16,-63.29 135.79,-54.79 13.41,1.74 26.72,10.38 39.95,0.96 -1.16,-21.26 -32.67,-26.41 -52.92,-27.9 -52.11,-3.78 -91.27,21.67 -120.78,36.92 -4.61,-23.37 -16.31,-44.86 -27.01,-58.84 16.46,-41.11 8.47,-89.11 27.98,-124.58 7.02,-12.79 20.96,-22.07 24.97,-38.84 35.08,18.51 60.95,46.45 89.82,69.78 71.46,57.69 154.26,115.08 249.62,149.47 19.32,6.94 40.58,9.46 58.86,19.92 12.56,7.16 23.04,18.7 34.93,28.91 55.37,47.37 113.9,99.49 179.75,135.55 27.02,14.8 57.49,23.3 85.88,39.84 105.24,61.48 182.69,160.67 325.43,178.41 0.44,5.52 -2.87,10.5 -4.99,15.95 -31.69,81.99 -14.19,231.05 27.91,289 2.68,3.67 6.58,10.42 12.04,9.98 3.57,-0.67 0.08,-5.98 -1.03,-7.98 1.26,-2.63 7.61,11.5 8.02,12.98 -89.04,13.55 -148.65,-22.22 -158.76,-100.68zm576.05 434.53l0 0c3.75,85.99 -9.07,170.5 -25.98,237.2 -56.78,6.94 -119.8,16.55 -183.69,9.98 18.73,-130.88 56.38,-315.89 3.98,-441.5 47.49,-15.73 99,-40.1 163.73,-28.9 36.05,53.64 38.24,138.93 41.96,223.22zm89.82 -320.9l0 0c-44,-6.42 -90.6,-6.08 -138.76,2.97 -71.65,13.54 -134.38,38.88 -210.64,51.86 -11.22,1.9 -25.56,5.23 -31.96,2.97 -9.95,-3.49 -11.96,-18.99 -21.96,-23.93 -27.91,17.7 -73.99,1.12 -91.83,-15.91 15.24,-3.75 28.4,-9.54 40.88,-15.95 -45.41,-49.35 -58.71,-138.9 -47.86,-235.21 3.27,-29.01 6.47,-59.61 15.94,-80.76 3.46,-7.68 10.37,-14.13 14.98,-21.89 31.62,-53.6 53.29,-118.94 71.87,-186.42 86.88,-3 169.98,-9.72 257.6,-11.95 28.24,112.75 63.77,212.62 109.81,303.99 12.45,24.74 25.76,41.4 44.94,58.8 17.39,15.8 37.64,30.2 52.91,49.83 32.33,41.69 31.89,100.08 57.86,148.5 -46.11,-5.83 -81.2,-20.7 -123.78,-26.9zm741.78 -70.78l0 0c16.02,127.28 24.94,290.21 14.98,428.59 -72.4,-16.62 -139.73,-52.08 -228.58,-53.87 -12.68,-0.22 -25.9,2.94 -37.99,0 -22.62,-5.49 -43.06,-37.84 -57.89,-54.79 -17.13,-19.48 -37.87,-39.43 -50.95,-59.76 56.86,-23.89 96.47,-56.43 137.8,-97.68 13.19,-13.21 29.65,-26.08 36.93,-40.88 5.5,-11.17 5.61,-24.93 8.96,-36.88 22.56,-79.43 62.73,-153.1 111.82,-209.31 8.14,7.53 19.62,19.96 30.96,32.87 9.81,11.24 22.52,23.12 27.01,33.91 6.06,14.73 4.57,38.8 6.95,57.8zm68.9 -374.69l0 0c-13.45,42.29 -51.36,70.56 -78.86,100.64 -25.6,27.87 -47.68,55.46 -73.91,82.69 -2.34,2.49 -6.32,8.47 -11,6.98 -47.76,-188.16 -138.17,-333.25 -256.57,-451.45 -88.89,-88.78 -195.77,-156.88 -299.45,-232.23 -16.23,-11.73 -33.92,-25.45 -49.94,-38.88 -16.02,-13.39 -33.26,-32.32 -57.9,-27.9 -5.09,13.65 7.29,20.92 14.94,27.9 22.85,20.7 45.41,43.36 68.9,63.81 94.28,82.13 191.23,162.04 280.53,251.12 101.6,101.46 206.73,207.41 271.54,349.83 8.33,18.14 24.08,46.56 22.97,64.77 -0.74,13.99 -16.72,30.76 -23.97,41.89 -26.28,40.29 -46.19,82.95 -60.91,133.55 -10.52,36.36 -23.56,62.7 -43.89,85.7 -19.73,22.37 -43.25,41.74 -69.9,59.8 -22.59,15.32 -55.07,34.32 -88.81,40.85 -40.66,7.9 -79.61,1.52 -105.8,-17.96 -24.16,-17.84 -37.46,-47.89 -49.99,-79.72 -12.33,-31.46 -23.56,-62.63 -34.93,-94.64 -12.48,-35.39 -23.11,-66.07 -37.94,-92.71 -15.24,-27.38 -37.05,-46.89 -60.91,-68.74 -24.15,-22.19 -40.43,-42.55 -55.89,-73.79 -13.97,-28.23 -25.42,-58.84 -37.9,-91.67 -25.5,-66.7 -46.35,-126.1 -61.92,-197.32 -11.52,-52.46 -19.24,-116.64 -9.99,-178.41 3.45,-23.26 11.92,-46.41 5.02,-68.78 -3.87,-12.32 -11.3,-21.19 -18.99,-29.9 -7.1,-7.98 -18.62,-17.14 -21.97,-25.9 -2.52,-6.6 -1.63,-15.77 -2.97,-22.92 -9.22,-47.67 -25.23,-90.75 -40.95,-135.56 142.29,-27.71 274.92,-65.07 391.35,-118.6 0.63,0 1.3,0 2,0 6.73,14.76 -3.9,43.85 2.01,60.8 3.53,10.2 15.2,18.47 28.88,23.93 36.45,14.39 97.88,16.51 129.84,32.9 16.09,8.24 32.77,26.9 48.9,40.85 80.2,69.3 167.15,130.1 258.57,190.35 35.23,23.19 75.89,49.16 98.85,80.73 25.94,35.68 35.86,80.72 38.95,140.53 2.53,49.71 6.47,121.94 -7.99,167.46zm15.98 -328.91l0 0c-18.36,-31.54 -43.07,-56.66 -68.9,-80.73 10.59,-17.03 49.76,-12.73 70.87,-7.98 -4.02,26.19 -1.12,59.36 -1.97,88.71zm160.69 50.85l0 0c19.73,6.2 39.57,6.42 56.89,14.92 19.47,9.53 44.07,34.5 48.01,56.79 2.45,14.14 -3.12,29.13 -5.05,46.9 -1.64,15.36 -0.97,35.98 -4.98,46.81 -5.02,13.32 -23.79,28.94 -40.96,27.9 -29.58,-1.82 -40.87,-48.7 -46.89,-76.75 -7.51,-35.21 -10.85,-74.27 -7.96,-113.63 -0.15,-1.41 -0.18,-2.79 0.94,-2.94zm-23.93 -164.45l0 0c-3.35,11.94 -27.91,13.46 -40.92,21.89 -47.31,30.68 -17.1,111.85 28.91,128.58 -2.08,50.79 0.89,113.03 12.01,155.44 2.04,7.98 8.54,18.55 7.95,24.97 -0.86,10.53 -26.05,32.09 -37.87,33.87 -13.05,1.93 -26.24,-3.9 -33,-9.98 -28.69,-25.71 -29.58,-104.14 -33.93,-156.45 -2.3,-27.74 -5.58,-58.91 -6.95,-87.73 -3.49,-73.16 -1.86,-132.26 58.86,-138.53 13.01,-1.33 22.42,0.19 33.97,3.97 4.61,4.9 13.08,16.4 10.97,23.97zm34.88 3l0 0c11.75,-24.26 40.44,-35.2 69.94,-37.87 13.31,-1.23 19.22,3.22 30.92,10.9 18.51,12.21 39.88,29.68 41.92,54.83 -43.63,-13.24 -87.62,-26.08 -142.78,-27.86zm944.47 168.39l0 0c-217.21,7.39 -430.29,18.92 -644.94,28.9 -14.49,-37.69 -31.44,-72.9 -47.94,-108.62 236.01,-7.98 464.26,-23.6 700.87,-30.91 -3.79,35.77 -3.94,75.13 -7.99,110.63z"/>
  </g>
 </g>
</svg>
