<?xml version="1.0" encoding="UTF-8"?>
<svg xmlns="http://www.w3.org/2000/svg" xmlns:xlink="http://www.w3.org/1999/xlink" width="20pt" height="20pt" viewBox="0 0 20 20" version="1.1">
<g id="surface1">
<path style=" stroke:none;fill-rule:nonzero;fill:rgb(21.960784%,20.784314%,20%);fill-opacity:1;" d="M 6.699219 15.023438 C 6.546875 14.867188 6.296875 14.867188 6.144531 15.023438 L 4.097656 17.066406 C 3.945312 17.21875 3.945312 17.46875 4.097656 17.625 C 4.175781 17.699219 4.277344 17.738281 4.378906 17.738281 C 4.476562 17.738281 4.578125 17.699219 4.65625 17.625 L 6.699219 15.578125 C 6.855469 15.425781 6.855469 15.175781 6.699219 15.023438 Z M 6.699219 15.023438 "/>
<path style=" stroke:none;fill-rule:nonzero;fill:rgb(21.960784%,20.784314%,20%);fill-opacity:1;" d="M 7.152344 14.175781 C 6.644531 14.175781 6.644531 14.964844 7.152344 14.964844 C 7.65625 14.964844 7.660156 14.175781 7.152344 14.175781 Z M 7.152344 14.175781 "/>
<path style=" stroke:none;fill-rule:nonzero;fill:rgb(21.960784%,20.784314%,20%);fill-opacity:1;" d="M 19.882812 4.265625 L 15.734375 0.117188 C 15.660156 0.0429688 15.5625 0 15.457031 0 C 15.351562 0 15.25 0.0429688 15.179688 0.117188 L 12.4375 2.855469 L 1.484375 13.808594 L 0.117188 15.179688 C 0.0429688 15.25 0 15.351562 0 15.457031 C 0 15.5625 0.0429688 15.660156 0.117188 15.734375 L 4.265625 19.882812 C 4.34375 19.960938 4.441406 20 4.542969 20 C 4.644531 20 4.746094 19.960938 4.820312 19.882812 L 19.882812 4.820312 C 19.957031 4.75 20 4.648438 20 4.542969 C 20 4.4375 19.957031 4.339844 19.882812 4.265625 Z M 4.542969 19.050781 L 0.949219 15.457031 L 1.761719 14.644531 L 2.453125 15.335938 C 2.53125 15.410156 2.628906 15.449219 2.730469 15.449219 C 2.832031 15.449219 2.933594 15.410156 3.011719 15.335938 C 3.164062 15.179688 3.164062 14.929688 3.011719 14.777344 L 2.320312 14.085938 L 3.132812 13.273438 L 4.390625 14.53125 C 4.46875 14.609375 4.570312 14.648438 4.667969 14.648438 C 4.769531 14.648438 4.871094 14.609375 4.949219 14.53125 C 5.101562 14.378906 5.101562 14.128906 4.949219 13.976562 L 3.6875 12.71875 L 4.5 11.90625 L 5.191406 12.59375 C 5.269531 12.671875 5.371094 12.710938 5.46875 12.710938 C 5.570312 12.710938 5.671875 12.671875 5.75 12.59375 C 5.902344 12.441406 5.902344 12.191406 5.75 12.039062 L 5.058594 11.347656 L 5.871094 10.535156 L 7.128906 11.792969 C 7.207031 11.871094 7.308594 11.910156 7.40625 11.910156 C 7.507812 11.910156 7.609375 11.871094 7.6875 11.792969 C 7.839844 11.640625 7.839844 11.390625 7.6875 11.238281 L 6.429688 9.980469 L 7.238281 9.167969 L 7.929688 9.855469 C 8.007812 9.933594 8.109375 9.972656 8.207031 9.972656 C 8.308594 9.972656 8.410156 9.933594 8.488281 9.855469 C 8.640625 9.703125 8.640625 9.453125 8.488281 9.300781 L 7.796875 8.609375 L 8.609375 7.796875 L 9.867188 9.054688 C 9.945312 9.132812 10.046875 9.171875 10.148438 9.171875 C 10.246094 9.171875 10.347656 9.132812 10.425781 9.054688 C 10.578125 8.902344 10.578125 8.652344 10.425781 8.5 L 9.167969 7.242188 L 9.980469 6.429688 L 10.667969 7.117188 C 10.746094 7.195312 10.847656 7.234375 10.945312 7.234375 C 11.046875 7.234375 11.148438 7.195312 11.226562 7.117188 C 11.378906 6.964844 11.378906 6.714844 11.226562 6.5625 L 10.535156 5.871094 L 11.347656 5.058594 L 12.605469 6.316406 C 12.683594 6.394531 12.785156 6.433594 12.886719 6.433594 C 12.984375 6.433594 13.085938 6.394531 13.164062 6.316406 C 13.316406 6.164062 13.316406 5.914062 13.164062 5.761719 L 11.90625 4.5 L 12.71875 3.6875 L 13.40625 4.378906 C 13.484375 4.457031 13.585938 4.496094 13.6875 4.496094 C 13.785156 4.496094 13.886719 4.457031 13.964844 4.378906 C 14.117188 4.226562 14.117188 3.976562 13.964844 3.820312 L 13.273438 3.132812 L 14.085938 2.320312 L 15.34375 3.578125 C 15.421875 3.65625 15.523438 3.695312 15.625 3.695312 C 15.726562 3.695312 15.824219 3.65625 15.902344 3.578125 C 16.054688 3.425781 16.054688 3.175781 15.902344 3.023438 L 14.644531 1.761719 L 15.457031 0.949219 L 19.050781 4.542969 Z M 4.542969 19.050781 "/>
</g>
</svg>
