<svg xmlns="http://www.w3.org/2000/svg" width="20pt" height="20pt" viewBox="0 0 20 20"><g fill="#383533"><path d="M6.7 15.023a.387.387 0 0 0-.555 0l-2.047 2.043a.398.398 0 0 0 0 .559.41.41 0 0 0 .28.113c.099 0 .2-.039.278-.113L6.7 15.578a.387.387 0 0 0 0-.555zm.452-.847c-.507 0-.507.789 0 .789.504 0 .508-.79 0-.79zm0 0"/><path d="M19.883 4.266L15.734.117a.384.384 0 0 0-.555 0l-2.742 2.738L1.485 13.81.118 15.18a.384.384 0 0 0 0 .555l4.149 4.149a.388.388 0 0 0 .554 0L19.883 4.82a.384.384 0 0 0 0-.554zM4.543 19.05L.949 15.457l.813-.812.691.69a.4.4 0 0 0 .559 0 .398.398 0 0 0 0-.558l-.692-.691.813-.813 1.258 1.258a.394.394 0 0 0 .558 0 .394.394 0 0 0 0-.554l-1.261-1.258.812-.813.691.688a.394.394 0 0 0 .559 0 .394.394 0 0 0 0-.555l-.691-.691.812-.813 1.258 1.258a.394.394 0 0 0 .559 0 .394.394 0 0 0 0-.555L6.43 9.98l.808-.812.692.687a.394.394 0 0 0 .558 0 .394.394 0 0 0 0-.554l-.691-.692.812-.812 1.258 1.258a.394.394 0 0 0 .559-.555L9.168 7.242l.812-.812.688.687a.394.394 0 0 0 .559 0 .394.394 0 0 0 0-.554l-.692-.692.813-.812 1.257 1.257a.394.394 0 1 0 .559-.555L11.906 4.5l.813-.813.687.692a.394.394 0 0 0 .559 0 .398.398 0 0 0 0-.559l-.692-.687.813-.813 1.258 1.258c.078.078.18.117.281.117a.394.394 0 0 0 .277-.672l-1.257-1.261.812-.813 3.594 3.594zm0 0"/></g></svg>