<svg xmlns="http://www.w3.org/2000/svg" viewBox="0 0 512 512" width="512" height="512"><path d="M171.516 384.584c-3.938-3.937-10.319-3.937-14.258 0l-52.322 52.322c-3.937 3.937-3.937 10.32 0 14.258a10.05 10.05 0 0 0 7.128 2.953c2.58 0 5.16-.984 7.128-2.953l52.323-52.322c3.938-3.937 3.938-10.32.001-14.258zm11.554-21.636c-12.973 0-12.995 20.162 0 20.162 12.973 0 12.994-20.162 0-20.162z" data-original="#000000" class="active-path" data-old_color="##38353" fill="#383533"/><path d="M509.047 109.188L402.812 2.953a10.083 10.083 0 0 0-14.257 0l-70.108 70.108-.001.001-.001.001-70.106 70.106-.002.002-.002.002L38.006 353.502l-.001.001-35.053 35.052a10.083 10.083 0 0 0 .001 14.256l106.236 106.236a10.05 10.05 0 0 0 7.128 2.953c2.58 0 5.159-.984 7.128-2.953l385.602-385.602a10.083 10.083 0 0 0 0-14.257zm-392.73 378.473l-91.978-91.978 20.794-20.794 17.661 17.661a10.05 10.05 0 0 0 7.128 2.953c2.58 0 5.159-.984 7.128-2.953 3.937-3.937 3.937-10.32 0-14.258l-17.66-17.661 20.8-20.8 32.213 32.213a10.05 10.05 0 0 0 7.128 2.953c2.58 0 5.159-.985 7.128-2.953 3.937-3.937 3.937-10.32 0-14.257l-32.213-32.213 20.799-20.799 17.661 17.661c1.969 1.969 4.549 2.953 7.128 2.953s5.159-.984 7.128-2.953c3.937-3.937 3.937-10.32 0-14.258l-17.661-17.661 20.795-20.795 32.217 32.218a10.05 10.05 0 0 0 7.128 2.953c2.58 0 5.16-.985 7.128-2.953 3.937-3.937 3.937-10.32 0-14.257l-32.218-32.218 20.796-20.796 17.661 17.654a10.047 10.047 0 0 0 7.126 2.951c2.581 0 5.161-.985 7.129-2.954 3.936-3.938 3.935-10.321-.003-14.258l-17.658-17.65 20.803-20.803 32.218 32.218c1.969 1.969 4.549 2.953 7.128 2.953s5.16-.984 7.128-2.953c3.937-3.937 3.937-10.32 0-14.258l-32.218-32.218 20.794-20.794 17.661 17.661c1.969 1.969 4.549 2.953 7.128 2.953s5.16-.985 7.128-2.953c3.937-3.937 3.937-10.32 0-14.257L269.718 150.3l20.795-20.795 32.217 32.218a10.05 10.05 0 0 0 7.128 2.953c2.58 0 5.159-.985 7.128-2.953 3.937-3.937 3.937-10.32 0-14.257l-32.218-32.219 20.799-20.799 17.656 17.656c1.969 1.969 4.549 2.953 7.128 2.953s5.159-.984 7.128-2.953c3.937-3.937 3.937-10.32 0-14.258L339.825 80.19l20.8-20.8 32.218 32.218c1.969 1.969 4.549 2.953 7.128 2.953s5.16-.985 7.128-2.953c3.937-3.937 3.937-10.32 0-14.257l-32.211-32.218 20.794-20.794 91.978 91.978-371.343 371.344z" data-original="#000000" class="active-path" data-old_color="##38353" fill="#383533"/></svg>